<svg width="34" height="34" viewBox="0 0 34 34" fill="none" xmlns="http://www.w3.org/2000/svg">
<path d="M11.6878 17.9131L23.6299 28.4222C23.7681 28.5438 23.9355 28.6274 24.1157 28.6648C24.2959 28.7023 24.4827 28.6923 24.6579 28.6358C24.8331 28.5793 24.9906 28.4783 25.1149 28.3426C25.2393 28.2069 25.3263 28.0413 25.3675 27.8619L30.363 6.06302C30.4062 5.87455 30.3972 5.67786 30.3368 5.49415C30.2765 5.31045 30.1672 5.14669 30.0206 5.02053C29.8741 4.89436 29.6959 4.81057 29.5053 4.77819C29.3147 4.74581 29.1188 4.76606 28.9389 4.83676L4.42741 14.4663C4.21379 14.5502 4.03308 14.701 3.91234 14.8962C3.79159 15.0914 3.7373 15.3204 3.75757 15.5491C3.77785 15.7777 3.87162 15.9936 4.02483 16.1645C4.17805 16.3354 4.38248 16.452 4.60754 16.4971L11.6878 17.9131Z" stroke="#47DFE9" stroke-width="3" stroke-linecap="round" stroke-linejoin="round"/>
<path d="M11.6875 17.9124L29.7649 4.85645" stroke="#47DFE9" stroke-width="3" stroke-linecap="round" stroke-linejoin="round"/>
<path d="M17.6517 23.1614L13.5013 27.3118C13.3527 27.4604 13.1634 27.5616 12.9573 27.6026C12.7512 27.6436 12.5375 27.6225 12.3434 27.5421C12.1493 27.4617 11.9833 27.3255 11.8666 27.1508C11.7498 26.976 11.6875 26.7706 11.6875 26.5605V17.9128" stroke="#47DFE9" stroke-width="3" stroke-linecap="round" stroke-linejoin="round"/>
</svg>
